<svg width="97" height="97" viewBox="0 0 97 97" fill="none" xmlns="http://www.w3.org/2000/svg">
<g clip-path="url(#clip0)">
<path d="M46.1062 38.4171L46.1062 33.8363L50.687 33.8363L50.687 38.4171L46.1062 38.4171Z" fill="#008FDD"/>
<path d="M46.7775 62.0412C46.3451 62.4736 46.1066 63.0489 46.1066 63.6603L46.107 72.2514C46.1066 72.8632 46.3451 73.4385 46.7775 73.8709C47.2103 74.3037 47.7852 74.5418 48.397 74.5414C49.0085 74.5414 49.5834 74.3033 50.0161 73.8705C50.4485 73.4382 50.687 72.8629 50.687 72.2514L50.6874 63.6603C50.6874 63.0489 50.4492 62.4732 50.0169 62.0408C49.5841 61.6081 49.0092 61.3699 48.397 61.3699C47.7852 61.3703 47.2103 61.6085 46.7775 62.0412Z" fill="#008FDD"/>
<path d="M54.6976 40.4215C54.6976 40.9753 54.4731 41.4768 54.1102 41.8397C53.7476 42.2023 53.2462 42.4268 52.6923 42.4268L44.1012 42.4272C43.5695 42.4272 43.0592 42.216 42.6833 41.8401C42.3071 41.4639 42.0959 40.9536 42.0959 40.4219L42.0962 33.8357L30.2839 33.8361L30.2835 71.1777C30.2835 76.0162 32.1678 80.5648 35.5888 83.9859C38.5327 86.9298 42.3119 88.7343 46.3916 89.1807L46.3916 93.9579C46.3916 95.0656 47.2892 95.9632 48.3969 95.9632C48.9508 95.9632 49.4519 95.7391 49.8148 95.3762C50.1778 95.0132 50.4023 94.5118 50.4019 93.9583L50.4019 89.1811C54.482 88.7343 58.2612 86.9298 61.2051 83.9859C64.6261 80.5648 66.51 76.0158 66.5104 71.1777L66.5104 33.8357L54.6976 33.8357V40.4215ZM54.698 63.6603L54.6976 72.2514C54.6973 73.934 54.0422 75.5166 52.8522 76.7067C51.6621 77.8967 50.0799 78.5521 48.3969 78.5521C46.7139 78.5521 45.1318 77.8967 43.9417 76.7067C42.7516 75.5166 42.0962 73.9344 42.0962 72.2514L42.0962 63.6607C42.0962 61.9777 42.7516 60.3955 43.9417 59.2054C45.1321 58.015 46.7143 57.3596 48.3973 57.3596C50.0799 57.36 51.6625 58.015 52.8526 59.2051C54.0422 60.3955 54.6976 61.9777 54.698 63.6603Z" fill="#008FDD"/>
<path d="M64.505 16.9388C63.3973 16.9388 62.4997 17.8364 62.4997 18.9441V21.2342H60.0671V18.9441C60.0671 17.8364 59.1695 16.9388 58.0621 16.9384C56.9548 16.9388 56.0572 17.8364 56.0568 18.9438L56.0564 21.2342L53.6239 21.2342V18.9441C53.6239 17.8364 52.7263 16.9388 51.6189 16.9384C50.5116 16.9388 49.6139 17.8364 49.6136 18.9438L49.6132 21.2342L47.1806 21.2342V18.9434C47.1806 17.8364 46.2827 16.9384 45.1757 16.9384C44.068 16.9384 43.1703 17.836 43.1703 18.9438L43.17 21.2342H40.7374L40.737 18.9438C40.7374 17.8364 39.8394 16.9384 38.7321 16.9388C37.6244 16.9388 36.7267 17.8364 36.7267 18.9441V21.2342L34.2938 21.2345L34.2934 18.9441C34.2938 17.8368 33.3958 16.9388 32.2885 16.9392C31.1808 16.9392 30.2831 17.8368 30.2831 18.9445L30.2831 23.2395C30.2835 23.2399 30.2835 23.2399 30.2835 23.2406V29.8256L66.5103 29.8249L66.51 23.2402C66.51 23.2402 66.5103 23.2399 66.5103 23.2391L66.51 18.9438C66.5103 17.8364 65.6123 16.9384 64.505 16.9388Z" fill="#008FDD"/>
</g>
<defs>
<clipPath id="clip0">
<rect width="68.4436" height="68.4436" fill="white" transform="translate(0 48.397) rotate(-45)"/>
</clipPath>
</defs>
</svg>
