<svg width="448" height="108" viewBox="0 0 448 108" fill="none" xmlns="http://www.w3.org/2000/svg">
<rect y="-30" width="93" height="138" rx="5" fill="#A3C1EF"/>
<path d="M28.6 91V74H26.2V81.5H18.65V73.875L16.25 74V91H18.65V83.425H26.2V91H28.6ZM43.7207 84.95C43.7207 86.2 43.4707 87.3083 42.9707 88.275C42.4707 89.2417 41.754 89.9917 40.8207 90.525C39.904 91.0583 38.829 91.325 37.5957 91.325C36.379 91.325 35.3124 91.0583 34.3957 90.525C33.4957 89.9917 32.804 89.2417 32.3207 88.275C31.8374 87.3083 31.5957 86.1917 31.5957 84.925C31.5957 83.675 31.8457 82.5667 32.3457 81.6C32.8457 80.6333 33.554 79.8833 34.4707 79.35C35.3874 78.8167 36.4624 78.55 37.6957 78.55C38.9124 78.55 39.9707 78.8167 40.8707 79.35C41.7874 79.8833 42.4874 80.6333 42.9707 81.6C43.4707 82.5667 43.7207 83.6833 43.7207 84.95ZM37.6207 89.275C38.7207 89.275 39.5957 88.8667 40.2457 88.05C40.9124 87.2333 41.254 86.2083 41.2707 84.975C41.2707 83.675 40.954 82.625 40.3207 81.825C39.6874 81.0083 38.8124 80.6 37.6957 80.6C36.5957 80.6 35.7124 81.0083 35.0457 81.825C34.3957 82.6417 34.0624 83.6667 34.0457 84.9C34.0457 86.2 34.3624 87.2583 34.9957 88.075C35.629 88.875 36.504 89.275 37.6207 89.275ZM60.3188 78.475C61.5854 78.475 62.5354 78.8917 63.1688 79.725C63.8021 80.5417 64.1188 81.6333 64.1188 83V91H61.7188V83.225C61.7188 82.3583 61.5688 81.6917 61.2688 81.225C60.9854 80.7583 60.5021 80.525 59.8188 80.525C59.3354 80.525 58.7854 80.6917 58.1688 81.025C57.5521 81.3417 56.9354 81.7667 56.3188 82.3C56.3354 82.45 56.3438 82.6833 56.3438 83V91H53.9438V83.225C53.9438 82.3583 53.7938 81.6917 53.4938 81.225C53.2104 80.7583 52.7271 80.525 52.0438 80.525C51.5271 80.525 50.9438 80.7083 50.2938 81.075C49.6604 81.425 49.0188 81.8833 48.3688 82.45V91H45.9688V78.875H47.6438L48.0688 80.475C48.7021 79.8917 49.4188 79.4167 50.2188 79.05C51.0354 78.6667 51.8104 78.475 52.5438 78.475C53.3438 78.475 54.0188 78.65 54.5688 79C55.1354 79.35 55.5604 79.8417 55.8438 80.475C56.4771 79.8917 57.1938 79.4167 57.9938 79.05C58.8104 78.6667 59.5854 78.475 60.3188 78.475ZM77.3637 84.825C77.3637 82.9917 76.9137 81.4917 76.0137 80.325C75.1303 79.1417 73.8137 78.55 72.0637 78.55C70.8803 78.55 69.847 78.8167 68.9637 79.35C68.097 79.8833 67.4303 80.6333 66.9637 81.6C66.497 82.5667 66.2637 83.675 66.2637 84.925C66.2637 86.875 66.8303 88.425 67.9637 89.575C69.097 90.725 70.722 91.3 72.8387 91.3C74.3053 91.3 75.772 90.8583 77.2387 89.975L76.4887 88.225C75.6387 88.625 74.972 88.9083 74.4887 89.075C74.022 89.225 73.472 89.3 72.8387 89.3C71.5387 89.3 70.5553 88.9583 69.8887 88.275C69.2387 87.5917 68.8637 86.6583 68.7637 85.475H77.3637V84.825ZM68.8137 83.85C68.9303 82.8333 69.2553 82.0417 69.7887 81.475C70.3387 80.8917 71.072 80.6 71.9887 80.6C73.7053 80.6 74.722 81.6833 75.0387 83.85H68.8137Z" fill="white"/>
<path d="M141.6 91V74H139.2V81.5H131.65V73.875L129.25 74V91H131.65V83.425H139.2V91H141.6ZM146.521 76.7C146.937 76.7 147.296 76.5583 147.596 76.275C147.896 75.975 148.046 75.6167 148.046 75.2C148.046 74.7833 147.896 74.4333 147.596 74.15C147.296 73.85 146.937 73.7 146.521 73.7C146.104 73.7 145.754 73.85 145.471 74.15C145.187 74.4333 145.046 74.7833 145.046 75.2C145.046 75.6167 145.187 75.975 145.471 76.275C145.754 76.5583 146.104 76.7 146.521 76.7ZM147.771 91V78.875H145.346V91H147.771ZM150.116 90.225C150.582 90.5583 151.216 90.825 152.016 91.025C152.832 91.225 153.532 91.325 154.116 91.325C155.699 91.325 156.916 91.0083 157.766 90.375C158.616 89.7417 159.041 88.85 159.041 87.7C159.041 86.0667 157.674 84.7583 154.941 83.775C154.141 83.5083 153.524 83.2333 153.091 82.95C152.674 82.6667 152.457 82.3583 152.441 82.025C152.441 81.5917 152.641 81.2333 153.041 80.95C153.457 80.65 153.982 80.5 154.616 80.5C155.199 80.5 155.732 80.575 156.216 80.725C156.699 80.8583 157.232 81.0583 157.816 81.325L158.566 79.7C158.082 79.3667 157.449 79.0917 156.666 78.875C155.899 78.6583 155.232 78.55 154.666 78.55C153.249 78.55 152.124 78.8667 151.291 79.5C150.474 80.1167 150.066 80.975 150.066 82.075C150.066 83.6417 151.391 84.8583 154.041 85.725C155.841 86.2917 156.741 86.9917 156.741 87.825C156.741 88.2917 156.499 88.6667 156.016 88.95C155.549 89.2333 154.916 89.375 154.116 89.375C153.082 89.375 151.999 89.1 150.866 88.55L150.116 90.225ZM164.288 79.025V75.45L161.888 76V79.025H160.163L160.188 80.85H161.888V87.625C161.888 88.8417 162.23 89.7833 162.913 90.45C163.613 91.1 164.563 91.425 165.763 91.425C166.096 91.425 166.455 91.3667 166.838 91.25C167.238 91.15 167.563 91.0333 167.813 90.9L167.188 89.075C166.705 89.2583 166.313 89.35 166.013 89.35C165.43 89.35 164.996 89.1667 164.713 88.8C164.43 88.4167 164.288 87.9 164.288 87.25V80.85H167.238L166.488 79.025H164.288ZM181.184 84.95C181.184 86.2 180.934 87.3083 180.434 88.275C179.934 89.2417 179.217 89.9917 178.284 90.525C177.367 91.0583 176.292 91.325 175.059 91.325C173.842 91.325 172.775 91.0583 171.859 90.525C170.959 89.9917 170.267 89.2417 169.784 88.275C169.3 87.3083 169.059 86.1917 169.059 84.925C169.059 83.675 169.309 82.5667 169.809 81.6C170.309 80.6333 171.017 79.8833 171.934 79.35C172.85 78.8167 173.925 78.55 175.159 78.55C176.375 78.55 177.434 78.8167 178.334 79.35C179.25 79.8833 179.95 80.6333 180.434 81.6C180.934 82.5667 181.184 83.6833 181.184 84.95ZM175.084 89.275C176.184 89.275 177.059 88.8667 177.709 88.05C178.375 87.2333 178.717 86.2083 178.734 84.975C178.734 83.675 178.417 82.625 177.784 81.825C177.15 81.0083 176.275 80.6 175.159 80.6C174.059 80.6 173.175 81.0083 172.509 81.825C171.859 82.6417 171.525 83.6667 171.509 84.9C171.509 86.2 171.825 87.2583 172.459 88.075C173.092 88.875 173.967 89.275 175.084 89.275ZM185.832 82.975C186.465 82.375 187.182 81.8667 187.982 81.45C188.782 81.0167 189.498 80.8 190.132 80.8L189.607 78.875C189.023 78.875 188.34 79.0833 187.557 79.5C186.79 79.9167 186.123 80.3667 185.557 80.85L184.782 78.875H183.432V91H185.832V82.975ZM194.354 92.525C194.171 93.025 193.862 93.4167 193.429 93.7C192.996 94 192.379 94.325 191.579 94.675L192.379 96.525C193.346 96.3083 194.212 95.9 194.979 95.3C195.746 94.7167 196.279 94.0167 196.579 93.2L201.954 78.875H199.479L196.279 87.575L192.904 78.425L190.629 79.275L195.054 90.675L194.354 92.525Z" fill="#163561"/>
<path d="M252.3 90.075C252.633 90.375 253.325 90.6583 254.375 90.925C255.442 91.1917 256.342 91.325 257.075 91.325C258.358 91.325 259.458 91.1333 260.375 90.75C261.292 90.3667 261.992 89.8333 262.475 89.15C262.958 88.45 263.2 87.65 263.2 86.75C263.2 85.5833 262.842 84.6333 262.125 83.9C261.425 83.1667 260.317 82.4583 258.8 81.775C257.667 81.2583 256.808 80.8333 256.225 80.5C255.642 80.1667 255.192 79.8 254.875 79.4C254.558 78.9833 254.4 78.5 254.4 77.95C254.4 77.2333 254.708 76.6833 255.325 76.3C255.942 75.9167 256.75 75.725 257.75 75.725C258.467 75.725 259.083 75.8083 259.6 75.975C260.133 76.125 260.692 76.3417 261.275 76.625L262.075 74.725C261.442 74.4083 260.725 74.1417 259.925 73.925C259.142 73.7083 258.358 73.6 257.575 73.6C256.442 73.6 255.45 73.7917 254.6 74.175C253.767 74.5583 253.125 75.0833 252.675 75.75C252.225 76.4167 252 77.1667 252 78C252 78.8333 252.158 79.55 252.475 80.15C252.792 80.7333 253.258 81.25 253.875 81.7C254.508 82.1333 255.35 82.5833 256.4 83.05C257.467 83.5167 258.3 83.925 258.9 84.275C259.5 84.6083 259.958 84.9833 260.275 85.4C260.608 85.8 260.775 86.2667 260.775 86.8C260.775 87.55 260.45 88.15 259.8 88.6C259.15 89.0333 258.233 89.25 257.05 89.25C256.35 89.25 255.608 89.1417 254.825 88.925C254.042 88.7083 253.383 88.4583 252.85 88.175L252.3 90.075ZM275.789 84.825C275.789 82.9917 275.339 81.4917 274.439 80.325C273.556 79.1417 272.239 78.55 270.489 78.55C269.306 78.55 268.273 78.8167 267.389 79.35C266.523 79.8833 265.856 80.6333 265.389 81.6C264.923 82.5667 264.689 83.675 264.689 84.925C264.689 86.875 265.256 88.425 266.389 89.575C267.523 90.725 269.148 91.3 271.264 91.3C272.731 91.3 274.198 90.8583 275.664 89.975L274.914 88.225C274.064 88.625 273.398 88.9083 272.914 89.075C272.448 89.225 271.898 89.3 271.264 89.3C269.964 89.3 268.981 88.9583 268.314 88.275C267.664 87.5917 267.289 86.6583 267.189 85.475H275.789V84.825ZM267.239 83.85C267.356 82.8333 267.681 82.0417 268.214 81.475C268.764 80.8917 269.498 80.6 270.414 80.6C272.131 80.6 273.148 81.6833 273.464 83.85H267.239ZM280.437 82.975C281.07 82.375 281.787 81.8667 282.587 81.45C283.387 81.0167 284.104 80.8 284.737 80.8L284.212 78.875C283.629 78.875 282.945 79.0833 282.162 79.5C281.395 79.9167 280.729 80.3667 280.162 80.85L279.387 78.875H278.037V91H280.437V82.975ZM291.959 91L296.559 78.875H294.084L290.884 87.625L287.534 78.425L285.234 79.275L289.734 91H291.959ZM299.476 76.7C299.892 76.7 300.251 76.5583 300.551 76.275C300.851 75.975 301.001 75.6167 301.001 75.2C301.001 74.7833 300.851 74.4333 300.551 74.15C300.251 73.85 299.892 73.7 299.476 73.7C299.059 73.7 298.709 73.85 298.426 74.15C298.142 74.4333 298.001 74.7833 298.001 75.2C298.001 75.6167 298.142 75.975 298.426 76.275C298.709 76.5583 299.059 76.7 299.476 76.7ZM300.726 91V78.875H298.301V91H300.726ZM312.396 88.45C311.812 88.7333 311.271 88.9417 310.771 89.075C310.271 89.2083 309.679 89.275 308.996 89.275C307.879 89.275 307.004 88.875 306.371 88.075C305.737 87.2583 305.421 86.2 305.421 84.9C305.437 83.6667 305.771 82.6417 306.421 81.825C307.087 81.0083 307.971 80.6 309.071 80.6C309.704 80.6 310.254 80.6667 310.721 80.8C311.204 80.9333 311.787 81.1417 312.471 81.425L313.171 79.725C312.671 79.3917 312.004 79.1167 311.171 78.9C310.337 78.6667 309.646 78.55 309.096 78.55C307.862 78.55 306.779 78.8167 305.846 79.35C304.929 79.8833 304.221 80.6333 303.721 81.6C303.221 82.5667 302.971 83.675 302.971 84.925C302.971 86.1917 303.212 87.3083 303.696 88.275C304.196 89.2417 304.896 89.9917 305.796 90.525C306.712 91.0583 307.779 91.325 308.996 91.325C309.562 91.325 310.262 91.2167 311.096 91C311.946 90.7833 312.621 90.5083 313.121 90.175L312.396 88.45ZM325.667 84.825C325.667 82.9917 325.217 81.4917 324.317 80.325C323.434 79.1417 322.117 78.55 320.367 78.55C319.184 78.55 318.151 78.8167 317.267 79.35C316.401 79.8833 315.734 80.6333 315.267 81.6C314.801 82.5667 314.567 83.675 314.567 84.925C314.567 86.875 315.134 88.425 316.267 89.575C317.401 90.725 319.026 91.3 321.142 91.3C322.609 91.3 324.076 90.8583 325.542 89.975L324.792 88.225C323.942 88.625 323.276 88.9083 322.792 89.075C322.326 89.225 321.776 89.3 321.142 89.3C319.842 89.3 318.859 88.9583 318.192 88.275C317.542 87.5917 317.167 86.6583 317.067 85.475H325.667V84.825ZM317.117 83.85C317.234 82.8333 317.559 82.0417 318.092 81.475C318.642 80.8917 319.376 80.6 320.292 80.6C322.009 80.6 323.026 81.6833 323.342 83.85H317.117Z" fill="#163561"/>
<path d="M387.225 83.9V88.875C386.308 89.1583 385.383 89.3 384.45 89.3C383.317 89.3 382.3 89.025 381.4 88.475C380.5 87.925 379.792 87.1417 379.275 86.125C378.758 85.1083 378.5 83.925 378.5 82.575C378.5 81.1417 378.792 79.9083 379.375 78.875C379.958 77.825 380.725 77.0333 381.675 76.5C382.642 75.9667 383.692 75.7 384.825 75.7C385.558 75.7 386.15 75.75 386.6 75.85C387.067 75.95 387.675 76.1333 388.425 76.4L389.175 74.675C388.625 74.3417 387.908 74.0917 387.025 73.925C386.158 73.7417 385.408 73.65 384.775 73.65C383.125 73.65 381.633 74.0333 380.3 74.8C378.967 75.55 377.917 76.6083 377.15 77.975C376.383 79.325 376 80.8667 376 82.6C376 84.25 376.35 85.7417 377.05 87.075C377.75 88.3917 378.742 89.4333 380.025 90.2C381.308 90.9667 382.8 91.35 384.5 91.35C385.383 91.35 386.275 91.2333 387.175 91C388.075 90.7833 388.825 90.5 389.425 90.15L389.45 82.075H383.725L383.525 83.9H387.225ZM393.273 81.525C394.507 80.975 395.673 80.7 396.773 80.7C397.673 80.7 398.298 80.9667 398.648 81.5C399.015 82.0167 399.198 82.7667 399.198 83.75H396.323C394.973 83.75 393.89 84.0833 393.073 84.75C392.273 85.4 391.873 86.3167 391.873 87.5C391.873 88.65 392.232 89.575 392.948 90.275C393.665 90.9583 394.715 91.3 396.098 91.3C396.715 91.3 397.348 91.1583 397.998 90.875C398.648 90.5917 399.198 90.25 399.648 89.85L399.948 91H401.623V82.775C401.623 82.0083 401.407 81.3 400.973 80.65C400.557 80 399.973 79.4917 399.223 79.125C398.473 78.7417 397.64 78.55 396.723 78.55C396.157 78.55 395.432 78.6583 394.548 78.875C393.682 79.075 393.032 79.325 392.598 79.625L393.273 81.525ZM394.023 87.5C394.023 86.9 394.223 86.3917 394.623 85.975C395.023 85.5583 395.573 85.35 396.273 85.35H399.223V87.8C398.79 88.2833 398.298 88.675 397.748 88.975C397.198 89.2583 396.632 89.4 396.048 89.4C395.398 89.4 394.898 89.2167 394.548 88.85C394.198 88.4667 394.023 88.0167 394.023 87.5ZM407.177 91V73.35L404.777 73.625V91H407.177ZM413.086 91V73.35L410.686 73.625V91H413.086ZM417.419 81.525C418.652 80.975 419.819 80.7 420.919 80.7C421.819 80.7 422.444 80.9667 422.794 81.5C423.16 82.0167 423.344 82.7667 423.344 83.75H420.469C419.119 83.75 418.035 84.0833 417.219 84.75C416.419 85.4 416.019 86.3167 416.019 87.5C416.019 88.65 416.377 89.575 417.094 90.275C417.81 90.9583 418.86 91.3 420.244 91.3C420.86 91.3 421.494 91.1583 422.144 90.875C422.794 90.5917 423.344 90.25 423.794 89.85L424.094 91H425.769V82.775C425.769 82.0083 425.552 81.3 425.119 80.65C424.702 80 424.119 79.4917 423.369 79.125C422.619 78.7417 421.785 78.55 420.869 78.55C420.302 78.55 419.577 78.6583 418.694 78.875C417.827 79.075 417.177 79.325 416.744 79.625L417.419 81.525ZM418.169 87.5C418.169 86.9 418.369 86.3917 418.769 85.975C419.169 85.5583 419.719 85.35 420.419 85.35H423.369V87.8C422.935 88.2833 422.444 88.675 421.894 88.975C421.344 89.2583 420.777 89.4 420.194 89.4C419.544 89.4 419.044 89.2167 418.694 88.85C418.344 88.4667 418.169 88.0167 418.169 87.5ZM431.073 82.975C431.706 82.375 432.423 81.8667 433.223 81.45C434.023 81.0167 434.74 80.8 435.373 80.8L434.848 78.875C434.265 78.875 433.581 79.0833 432.798 79.5C432.031 79.9167 431.365 80.3667 430.798 80.85L430.023 78.875H428.673V91H431.073V82.975ZM439.595 92.525C439.412 93.025 439.103 93.4167 438.67 93.7C438.237 94 437.62 94.325 436.82 94.675L437.62 96.525C438.587 96.3083 439.453 95.9 440.22 95.3C440.987 94.7167 441.52 94.0167 441.82 93.2L447.195 78.875H444.72L441.52 87.575L438.145 78.425L435.87 79.275L440.295 90.675L439.595 92.525Z" fill="#163561"/>
</svg>
